HIERARCHY
ROOT hip
{
  OFFSET 0.00112043 5.09927 -9.65472
  CHANNELS 6 Xposition Yposition Zposition Zrotation Xrotation Yrotation
  JOINT abdomen
  {
    OFFSET 0 -1.186 -1.5018
    CHANNELS 3 Zrotation Xrotation Yrotation
    JOINT abdomen2
    {
      OFFSET 0 9.964 0.2134
      CHANNELS 3 Zrotation Xrotation Yrotation
      JOINT chest
      {
        OFFSET 0 13.134 -3.2573
        CHANNELS 3 Zrotation Xrotation Yrotation
        JOINT neck
        {
          OFFSET 0 20.686 -1.6905
          CHANNELS 3 Zrotation Xrotation Yrotation
          JOINT head
          {
            OFFSET 0 7.238 -0.1237
            CHANNELS 3 Zrotation Xrotation Yrotation
            End Site
            {
              OFFSET 0 0 0
            }
          }
        }
        JOINT lCollar
        {
          OFFSET 1.7069 20.075 5.0056
          CHANNELS 3 Zrotation Xrotation Yrotation
          JOINT lShldr
          {
            OFFSET 13.6458 -0.047 -4.849
            CHANNELS 3 Zrotation Xrotation Yrotation
            JOINT lForeArm
            {
              OFFSET 28.3255 -0.9759 2.2888
              CHANNELS 3 Zrotation Xrotation Yrotation
              JOINT lHand
              {
                OFFSET 22.1583 -0.53 10.8316
                CHANNELS 3 Zrotation Xrotation Yrotation
                JOINT lThumb1
                {
                  OFFSET 0.786 0.112 2.5817
                  CHANNELS 3 Zrotation Xrotation Yrotation
                  JOINT lThumb2
                  {
                    OFFSET 0.3601 -0.878 4.2331
                    CHANNELS 3 Zrotation Xrotation Yrotation
                    JOINT lThumb2_End
                    {
                      OFFSET 1.8127 -1.216 2.2227
                      CHANNELS 3 Zrotation Xrotation Yrotation
                      End Site
                      {
                        OFFSET 0.0181 -0.0122 0.0222
                      }
                    }
                  }
                }
                JOINT lCarpal1
                {
                  OFFSET 0.9571 1.114 1.7695
                  CHANNELS 3 Zrotation Xrotation Yrotation
                  JOINT lIndex1
                  {
                    OFFSET 4.1246 0.487 4.1451
                    CHANNELS 3 Zrotation Xrotation Yrotation
                    JOINT lIndex2
                    {
                      OFFSET 3.4052 -1.454 2.7682
                      CHANNELS 3 Zrotation Xrotation Yrotation
                      JOINT lIndex2_End
                      {
                        OFFSET 1.4531 -1.795 1.2713
                        CHANNELS 3 Zrotation Xrotation Yrotation
                        End Site
                        {
                          OFFSET 0.0145 -0.0179 0.0127
                        }
                      }
                    }
                  }
                  JOINT lMid1
                  {
                    OFFSET 5.6954 0.21 2.1184
                    CHANNELS 3 Zrotation Xrotation Yrotation
                    JOINT lMid2
                    {
                      OFFSET 3.9766 -1.54 2.3863
                      CHANNELS 3 Zrotation Xrotation Yrotation
                      JOINT lMid2_End
                      {
                        OFFSET 1.4042 -1.926 1.125
                        CHANNELS 3 Zrotation Xrotation Yrotation
                        End Site
                        {
                          OFFSET 0.014 -0.0193 0.0113
                        }
                      }
                    }
                  }
                }
                JOINT lCarpal2
                {
                  OFFSET 2.0956 0.66 -0.3894
                  CHANNELS 3 Zrotation Xrotation Yrotation
                  JOINT lRing1
                  {
                    OFFSET 5.0395 -0.09 2.4971
                    CHANNELS 3 Zrotation Xrotation Yrotation
                    JOINT lRing2
                    {
                      OFFSET 3.7921 -1.552 1.4806
                      CHANNELS 3 Zrotation Xrotation Yrotation
                      JOINT lRing2_End
                      {
                        OFFSET 1.4655 -1.808 0.9609
                        CHANNELS 3 Zrotation Xrotation Yrotation
                        End Site
                        {
                          OFFSET 0.0147 -0.0181 0.0096
                        }
                      }
                    }
                  }
                  JOINT lPinky1
                  {
                    OFFSET 4.9141 -1.269 0.3591
                    CHANNELS 3 Zrotation Xrotation Yrotation
                    JOINT lPinky2
                    {
                      OFFSET 3.1477 -1.685 0.8462
                      CHANNELS 3 Zrotation Xrotation Yrotation
                      JOINT lPinky2_End
                      {
                        OFFSET 0.8055 -1.585 0.7955
                        CHANNELS 3 Zrotation Xrotation Yrotation
                        End Site
                        {
                          OFFSET 0.0081 -0.0158 0.008
                        }
                      }
                    }
                  }
                }
              }
            }
          }
        }
        JOINT rCollar
        {
          OFFSET -1.7069 20.075 5.0056
          CHANNELS 3 Zrotation Xrotation Yrotation
          JOINT rShldr
          {
            OFFSET -13.6458 -0.047 -4.849
            CHANNELS 3 Zrotation Xrotation Yrotation
            JOINT rForeArm
            {
              OFFSET -28.3255 -0.9759 2.2888
              CHANNELS 3 Zrotation Xrotation Yrotation
              JOINT rHand
              {
                OFFSET -22.1583 -0.53 10.8316
                CHANNELS 3 Zrotation Xrotation Yrotation
                JOINT rThumb1
                {
                  OFFSET -0.786 0.112 2.5817
                  CHANNELS 3 Zrotation Xrotation Yrotation
                  JOINT rThumb2
                  {
                    OFFSET -0.3601 -0.878 4.2331
                    CHANNELS 3 Zrotation Xrotation Yrotation
                    JOINT rThumb2_End
                    {
                      OFFSET -1.8127 -1.216 2.2227
                      CHANNELS 3 Zrotation Xrotation Yrotation
                      End Site
                      {
                        OFFSET -0.0181 -0.0122 0.0222
                      }
                    }
                  }
                }
                JOINT rCarpal1
                {
                  OFFSET -0.9571 1.114 1.7695
                  CHANNELS 3 Zrotation Xrotation Yrotation
                  JOINT rIndex1
                  {
                    OFFSET -4.1246 0.487 4.1451
                    CHANNELS 3 Zrotation Xrotation Yrotation
                    JOINT rIndex2
                    {
                      OFFSET -3.4052 -1.454 2.7682
                      CHANNELS 3 Zrotation Xrotation Yrotation
                      JOINT rIndex2_End
                      {
                        OFFSET -1.4531 -1.795 1.2713
                        CHANNELS 3 Zrotation Xrotation Yrotation
                        End Site
                        {
                          OFFSET -0.0145 -0.018 0.0127
                        }
                      }
                    }
                  }
                  JOINT rMid1
                  {
                    OFFSET -5.6954 0.21 2.1184
                    CHANNELS 3 Zrotation Xrotation Yrotation
                    JOINT rMid2
                    {
                      OFFSET -3.9766 -1.54 2.3863
                      CHANNELS 3 Zrotation Xrotation Yrotation
                      JOINT rMid2_End
                      {
                        OFFSET -1.4042 -1.926 1.125
                        CHANNELS 3 Zrotation Xrotation Yrotation
                        End Site
                        {
                          OFFSET -0.014 -0.0193 0.0113
                        }
                      }
                    }
                  }
                }
                JOINT rCarpal2
                {
                  OFFSET -2.0956 0.66 -0.3894
                  CHANNELS 3 Zrotation Xrotation Yrotation
                  JOINT rRing1
                  {
                    OFFSET -5.0395 -0.09 2.4971
                    CHANNELS 3 Zrotation Xrotation Yrotation
                    JOINT rRing2
                    {
                      OFFSET -3.7921 -1.552 1.4806
                      CHANNELS 3 Zrotation Xrotation Yrotation
                      JOINT rRing2_End
                      {
                        OFFSET -1.4655 -1.808 0.9609
                        CHANNELS 3 Zrotation Xrotation Yrotation
                        End Site
                        {
                          OFFSET -0.0147 -0.0181 0.0096
                        }
                      }
                    }
                  }
                  JOINT rPinky1
                  {
                    OFFSET -4.9141 -1.269 0.3592
                    CHANNELS 3 Zrotation Xrotation Yrotation
                    JOINT rPinky2
                    {
                      OFFSET -3.1477 -1.685 0.8462
                      CHANNELS 3 Zrotation Xrotation Yrotation
                      JOINT rPinky2_End
                      {
                        OFFSET -0.8055 -1.585 0.7955
                        CHANNELS 3 Zrotation Xrotation Yrotation
                        End Site
                        {
                          OFFSET -0.0081 -0.0158 0.008
                        }
                      }
                    }
                  }
                }
              }
            }
          }
        }
      }
    }
  }
  JOINT lThigh
  {
    OFFSET 8.367 -8.2066 0.5982
    CHANNELS 3 Zrotation Xrotation Yrotation
    JOINT lShin
    {
      OFFSET 2.1923 -43.463 -0.4932
      CHANNELS 3 Zrotation Xrotation Yrotation
      JOINT lFoot
      {
        OFFSET 0.7333 -45.8593 -2.6451
        CHANNELS 3 Zrotation Xrotation Yrotation
        End Site
        {
          OFFSET 2.6618 -4.2699 12.3931
        }
      }
    }
  }
  JOINT rThigh
  {
    OFFSET -8.367 -8.2066 0.5982
    CHANNELS 3 Zrotation Xrotation Yrotation
    JOINT rShin
    {
      OFFSET -2.1923 -43.463 -0.4931
      CHANNELS 3 Zrotation Xrotation Yrotation
      JOINT rFoot
      {
        OFFSET -0.7333 -45.8593 -2.6451
        CHANNELS 3 Zrotation Xrotation Yrotation
        End Site
        {
          OFFSET -2.6618 -4.2699 12.3931
        }
      }
    }
  }
}
MOTION
Frames:	4
Frame Time:	0.0333333
42.3098 13.4079 44.8744 0 70.9971 -0 -0.323008 3.80843 -0.0458668 -0.645098 7.61707 -0.0703935 -0.645098 7.61705 -0.0703937 -7.19324e-006 -28.7565 -3.58896e-006 -0.0603637 -22.9126 -0.0248067 -6.20202 -5.52594 3.48258 -78.8179 -9.01908 -57.6129 45.995 -31.4628 -92.8728 -5.1683 7.17376 2.45016 -3.97569e-016 2.08724e-015 -0 1.85534e-006 3.21878e-007 -2.97268e-007 -1.19271e-015 1.02374e-014 -0 -7.95139e-016 5.66536e-015 -0 -7.95139e-016 -1.19271e-015 9.54166e-015 1.85534e-006 3.21878e-007 -2.97268e-007 -1.19271e-015 3.67752e-015 -0 -7.95139e-016 -1.19271e-015 9.54166e-015 1.85534e-006 3.21878e-007 -2.97268e-007 -1.19271e-015 3.67752e-015 -0 -7.95139e-016 5.66536e-015 -0 -7.95139e-016 -1.19271e-015 9.54166e-015 1.85534e-006 3.21878e-007 -2.97268e-007 -1.19271e-015 3.67752e-015 -0 -7.95139e-016 -1.19271e-015 9.54166e-015 1.85534e-006 3.21878e-007 -2.97268e-007 -1.19271e-015 3.67752e-015 -0 6.38409 -5.628 -3.63762 78.9208 -8.83061 58.3168 -46.2745 -32.506 92.0292 5.23456 7.21388 -2.19421 2.8809e-006 9.7513e-007 -4.59887e-007 5.14804e-007 6.68246e-007 -8.78567e-008 1.02961e-006 1.33649e-006 -1.75713e-007 7.1726e-032 -2.5842e-015 1.59028e-015 2.8809e-006 9.7513e-007 -4.59887e-007 5.14804e-007 6.68246e-007 -8.78567e-008 1.02961e-006 1.33649e-006 -1.75713e-007 2.8809e-006 9.7513e-007 -4.59887e-007 5.14804e-007 6.68246e-007 -8.78567e-008 1.02961e-006 1.33649e-006 -1.75713e-007 7.1726e-032 -2.5842e-015 1.59028e-015 2.8809e-006 9.7513e-007 -4.59887e-007 5.14804e-007 6.68246e-007 -8.78567e-008 1.02961e-006 1.33649e-006 -1.75713e-007 2.8809e-006 9.7513e-007 -4.59887e-007 5.14804e-007 6.68246e-007 -8.78567e-008 1.02961e-006 1.33649e-006 -1.75713e-007 110.658 -34.4178 98.1255 -177.111 51.2655 -174.216 10.8308 25.742 3.73759 -110.659 -34.4113 -98.1261 177.107 51.2663 174.214 -10.8347 25.7415 -3.73999 
42.3098 13.4079 44.9107 0 70.9971 -0 -0.323007 3.80843 -0.0458716 -0.645097 7.61707 -0.0704032 -0.645096 7.61705 -0.0704034 -9.006e-006 -28.5063 -3.21012e-006 -0.060349 -22.8826 -0.0248009 -6.30533 -5.2478 3.29417 -78.782 -9.11739 -57.6135 45.995 -31.4628 -92.8728 -5.10062 7.28502 2.2991 -5.00046e-007 6.77637e-007 1.00991e-007 -3.97569e-016 -5.56597e-015 3.18055e-015 -1.35527e-006 -1.00009e-006 1.94856e-007 -7.95139e-016 4.37326e-015 -3.18055e-015 -5.00046e-007 6.77637e-007 1.00991e-007 -3.97569e-016 -6.16232e-015 6.36111e-015 -1.35527e-006 -1.00009e-006 1.94856e-007 -5.00046e-007 6.77637e-007 1.00991e-007 -3.97569e-016 -6.16232e-015 6.36111e-015 -1.35527e-006 -1.00009e-006 1.94856e-007 -7.95139e-016 4.37326e-015 -3.18055e-015 -5.00046e-007 6.77637e-007 1.00991e-007 -3.97569e-016 -6.16232e-015 6.36111e-015 -1.35527e-006 -1.00009e-006 1.94856e-007 -5.00046e-007 6.77637e-007 1.00991e-007 -3.97569e-016 -6.16232e-015 6.36111e-015 -1.35527e-006 -1.00009e-006 1.94856e-007 6.47813 -5.34431 -3.44152 78.8852 -8.92963 58.3199 -46.2745 -32.506 92.0293 5.15924 7.3235 -2.04369 -3.74099e-007 8.81016e-007 -1.20747e-006 2.21041e-007 3.02153e-007 1.21597e-006 2.94014e-007 3.65961e-007 -1.30456e-006 -2.04143e-031 7.35503e-015 1.59028e-015 -3.74099e-007 8.81016e-007 -1.20747e-006 2.21041e-007 3.02153e-007 1.21597e-006 2.94014e-007 3.65961e-007 -1.30456e-006 -3.74099e-007 8.81016e-007 -1.20747e-006 2.21041e-007 3.02153e-007 1.21597e-006 2.94014e-007 3.65961e-007 -1.30456e-006 -2.04143e-031 7.35503e-015 1.59028e-015 -3.74099e-007 8.81016e-007 -1.20747e-006 2.21041e-007 3.02153e-007 1.21597e-006 2.94014e-007 3.65961e-007 -1.30456e-006 -3.74099e-007 8.81016e-007 -1.20747e-006 2.21041e-007 3.02153e-007 1.21597e-006 2.94014e-007 3.65961e-007 -1.30456e-006 110.658 -34.4178 98.1255 -177.111 51.2655 -174.216 10.8308 25.742 3.73757 -110.659 -34.4114 -98.1261 177.107 51.2663 174.214 -10.8347 25.7415 -3.74002 
42.3098 13.4079 44.9469 0 70.9971 -0 -0.323007 3.80843 -0.0458755 -0.645096 7.61707 -0.0704111 -0.645096 7.61705 -0.0704111 -9.53748e-006 -28.256 -3.71234e-006 -0.0603355 -22.8526 -0.0247957 -6.40768 -4.96935 3.10635 -78.746 -9.2157 -57.6141 45.995 -31.4628 -92.8728 -5.03262 7.3961 2.14796 -3.97569e-016 -4.96962e-015 6.36111e-015 1.35502e-006 1.00055e-006 -1.92704e-007 -7.95139e-016 7.65321e-015 3.18055e-015 3.97569e-016 -1.68967e-015 -0 -2.38542e-015 -1.88845e-015 9.54166e-015 1.35502e-006 1.00055e-006 -1.92704e-007 -3.97569e-016 4.96962e-016 3.18055e-015 -2.38542e-015 -1.88845e-015 9.54166e-015 1.35502e-006 1.00055e-006 -1.92704e-007 -3.97569e-016 4.96962e-016 3.18055e-015 3.97569e-016 -1.68967e-015 -0 -2.38542e-015 -1.88845e-015 9.54166e-015 1.35502e-006 1.00055e-006 -1.92704e-007 -3.97569e-016 4.96962e-016 3.18055e-015 -2.38542e-015 -1.88845e-015 9.54166e-015 1.35502e-006 1.00055e-006 -1.92704e-007 -3.97569e-016 4.96962e-016 3.18055e-015 6.57114 -5.06033 -3.24599 78.8496 -9.02862 58.323 -46.2745 -32.506 92.0293 5.08362 7.43293 -1.89295 -1.18328e-006 -1.52666e-007 1.85321e-007 -5.15309e-007 -6.67975e-007 8.9314e-008 -1.18328e-006 -1.52666e-007 1.85321e-007 3.97569e-016 3.77691e-015 -1.59028e-015 -1.18328e-006 -1.52666e-007 1.85321e-007 -5.15309e-007 -6.67975e-007 8.9314e-008 -1.18328e-006 -1.52666e-007 1.85321e-007 -1.18328e-006 -1.52666e-007 1.85321e-007 -5.15309e-007 -6.67975e-007 8.9314e-008 -1.18328e-006 -1.52666e-007 1.85321e-007 3.97569e-016 3.77691e-015 -1.59028e-015 -1.18328e-006 -1.52666e-007 1.85321e-007 -5.15309e-007 -6.67975e-007 8.9314e-008 -1.18328e-006 -1.52666e-007 1.85321e-007 -1.18328e-006 -1.52666e-007 1.85321e-007 -5.15309e-007 -6.67975e-007 8.9314e-008 -1.18328e-006 -1.52666e-007 1.85321e-007 110.658 -34.4178 98.1255 -177.111 51.2655 -174.216 10.8308 25.742 3.73757 -110.659 -34.4114 -98.1261 177.107 51.2664 174.214 -10.8347 25.7416 -3.74 
42.3098 13.4079 44.9831 0 70.9971 -0 -0.323008 3.80842 -0.0458785 -0.645097 7.61707 -0.0704172 -0.645097 7.61705 -0.0704174 -2.89102e-005 -28.0068 -1.43277e-005 -0.0603209 -22.8226 -0.0247902 -6.50907 -4.69058 2.91912 -78.71 -9.314 -57.6146 45.995 -31.4628 -92.8728 -4.96432 7.50699 1.9966 -1.65093e-006 -1.77479e-006 -1.23877e-006 -1.00102e-006 1.35476e-006 2.04946e-007 -1.35476e-006 -1.00102e-006 1.90556e-007 7.95139e-016 3.97569e-016 3.18055e-015 -1.65093e-006 -1.77479e-006 -1.23877e-006 -1.00102e-006 1.35476e-006 2.04946e-007 -1.35476e-006 -1.00102e-006 1.90556e-007 -1.65093e-006 -1.77479e-006 -1.23877e-006 -1.00102e-006 1.35476e-006 2.04946e-007 -1.35476e-006 -1.00102e-006 1.90556e-007 7.95139e-016 3.97569e-016 3.18055e-015 -1.65093e-006 -1.77479e-006 -1.23877e-006 -1.00102e-006 1.35476e-006 2.04946e-007 -1.35476e-006 -1.00102e-006 1.90556e-007 -1.65093e-006 -1.77479e-006 -1.23877e-006 -1.00102e-006 1.35476e-006 2.04946e-007 -1.35476e-006 -1.00102e-006 1.90556e-007 6.66314 -4.77604 -3.05101 78.814 -9.12762 58.326 -46.2745 -32.506 92.0293 5.00769 7.54216 -1.74203 5.15567e-007 6.67831e-007 -9.00473e-008 2.88236e-006 9.72361e-007 -4.60012e-007 1.85123e-006 -3.63302e-007 -2.79918e-007 -3.97569e-016 -5.66536e-015 -3.18055e-015 5.15567e-007 6.67831e-007 -9.00473e-008 2.88236e-006 9.72361e-007 -4.60012e-007 1.85123e-006 -3.63302e-007 -2.79918e-007 5.15567e-007 6.67831e-007 -9.00473e-008 2.88236e-006 9.72361e-007 -4.60012e-007 1.85123e-006 -3.63302e-007 -2.79918e-007 -3.97569e-016 -5.66536e-015 -3.18055e-015 5.15567e-007 6.67831e-007 -9.00473e-008 2.88236e-006 9.72361e-007 -4.60012e-007 1.85123e-006 -3.63302e-007 -2.79918e-007 5.15567e-007 6.67831e-007 -9.00473e-008 2.88236e-006 9.72361e-007 -4.60012e-007 1.85123e-006 -3.63302e-007 -2.79918e-007 110.658 -34.4178 98.1255 -177.111 51.2654 -174.216 10.8308 25.7419 3.7376 -110.659 -34.4113 -98.1261 177.107 51.2663 174.214 -10.8347 25.7416 -3.74 
